HIERARCHY
ROOT Hips
{
    OFFSET 0.000000 0.000000 0.000000
    CHANNELS 6 Xposition Yposition Zposition Zrotation Xrotation Yrotation
    JOINT Spine
    {
        OFFSET -0.000000 7.236184 0.000000
        CHANNELS 3 Zrotation Xrotation Yrotation
        JOINT Spine1
        {
            OFFSET -0.000000 20.420147 0.000000
            CHANNELS 3 Zrotation Xrotation Yrotation
            JOINT Neck
            {
                OFFSET -0.000000 20.336288 1.848754
                CHANNELS 3 Zrotation Xrotation Yrotation
                JOINT Head
                {
                    OFFSET -0.000000 12.354461 -1.764923
                    CHANNELS 3 Zrotation Xrotation Yrotation
                    End Site
                    {
                        OFFSET -0.000000 22.061537 0.000000
                    }
                }
            }
            JOINT LeftShoulder
            {
                OFFSET 3.573296 18.396038 -0.314103
                CHANNELS 3 Zrotation Xrotation Yrotation
                JOINT LeftArm
                {
                    OFFSET 10.880760 0.000000 0.000000
                    CHANNELS 3 Zrotation Xrotation Yrotation
                    JOINT LeftForeArm
                    {
                        OFFSET 27.185530 0.000000 0.000000
                        CHANNELS 3 Zrotation Xrotation Yrotation
                        JOINT LeftHand
                        {
                            OFFSET 27.825975 0.000000 0.000000
                            CHANNELS 3 Zrotation Xrotation Yrotation
                            End Site
                            {
                                OFFSET 13.236923 0.000000 0.000000
                            }
                        }
                    }
                }
            }
            JOINT RightShoulder
            {
                OFFSET -3.474926 18.396038 -0.314103
                CHANNELS 3 Zrotation Xrotation Yrotation
                JOINT RightArm
                {
                    OFFSET -10.880760 0.000000 0.000000
                    CHANNELS 3 Zrotation Xrotation Yrotation
                    JOINT RightForeArm
                    {
                        OFFSET -27.185530 0.000000 0.000000
                        CHANNELS 3 Zrotation Xrotation Yrotation
                        JOINT RightHand
                        {
                            OFFSET -27.825975 0.000000 0.000000
                            CHANNELS 3 Zrotation Xrotation Yrotation
                            End Site
                            {
                                OFFSET -13.236923 0.000000 0.000000
                            }
                        }
                    }
                }
            }
        }
    }
    JOINT LeftUpLeg
    {
        OFFSET 8.824615 0.000000 0.000000
        CHANNELS 3 Zrotation Xrotation Yrotation
        JOINT LeftLeg
        {
            OFFSET -0.000000 -35.111282 0.000000
            CHANNELS 3 Zrotation Xrotation Yrotation
            JOINT LeftFoot
            {
                OFFSET -0.000000 -42.324711 0.000000
                CHANNELS 3 Zrotation Xrotation Yrotation
                JOINT LeftToeBase
                {
                    OFFSET -0.000000 -5.735999 13.236923
                    CHANNELS 3 Zrotation Xrotation Yrotation
                    End Site
                    {
                        OFFSET -0.000000 0.000000 3.529846
                    }
                }
            }
        }
    }
    JOINT RightUpLeg
    {
        OFFSET -8.824615 0.000000 0.000000
        CHANNELS 3 Zrotation Xrotation Yrotation
        JOINT RightLeg
        {
            OFFSET -0.000000 -35.111282 0.000000
            CHANNELS 3 Zrotation Xrotation Yrotation
            JOINT RightFoot
            {
                OFFSET -0.000000 -42.324711 0.000000
                CHANNELS 3 Zrotation Xrotation Yrotation
                JOINT RightToeBase
                {
                    OFFSET -0.000000 -5.735999 13.236923
                    CHANNELS 3 Zrotation Xrotation Yrotation
                    End Site
                    {
                        OFFSET -0.000000 0.000000 3.529846
                    }
                }
            }
        }
    }
}
MOTION
Frames:    9
Frame Time:    0.008333
-4.273217    82.206993    104.877701    -1.471773    -5.181167    -173.132385    -1.535722    -14.649608    1.132984    -0.322533    11.285141    1.362249    0.130769    2.351307    -4.079579    7.054081    -4.244869    -3.000393    0.518878    18.894663    -3.706556    -40.451973    48.460968    -41.922283    1.175409    -9.444480    -17.208914    18.648056    -8.845947    2.608641    9.502917    25.465569    -3.452434    34.249733    43.439205    40.700230    -5.140863    -9.806396    19.181318    -17.298147    -8.610170    -2.252154    5.510781    -5.724151    -0.570322    -0.851761    11.065534    2.410669    -7.921405    -7.957132    -9.452901    -0.048005    -0.531526    0.053263    -8.819834    0.221439    -3.730815    2.541893    4.141726    0.119936    3.424095    -6.268290    -12.384698    -2.149564    -0.066919    2.325089    
-4.281999    82.204468    104.858742    -1.476117    -5.180525    -173.040436    -1.530782    -14.652194    1.154316    -0.341967    11.273471    1.384864    0.113186    2.372109    -4.093175    7.076656    -4.248788    -3.007995    0.518609    18.885521    -3.659811    -40.762058    48.370731    -41.618042    1.130062    -9.554391    -17.180334    18.678783    -8.960608    2.619604    9.471658    25.553642    -3.377989    34.357880    43.366249    40.608330    -5.172887    -9.802686    19.196182    -17.292770    -8.597986    -2.269005    5.497423    -5.726840    -0.698602    -0.867534    11.061840    2.463180    -7.915058    -7.956357    -9.465780    -0.044340    -0.543646    0.049197    -8.826185    0.249278    -3.742668    2.541568    4.180494    0.110467    3.419608    -6.322862    -12.454775    -2.151208    -0.063235    2.326855    
-4.290643    82.201965    104.840019    -1.480432    -5.179740    -172.949295    -1.525944    -14.654837    1.175357    -0.361357    11.262423    1.407254    0.096573    2.393227    -4.106446    7.098465    -4.253991    -3.015460    0.518153    18.877415    -3.614312    -41.063759    48.278984    -41.320976    1.084777    -9.663097    -17.151165    18.708794    -9.073427    2.634435    9.439880    25.636696    -3.305418    34.465931    43.297722    40.516975    -5.204153    -9.798787    19.210505    -17.287130    -8.585847    -2.285175    5.484162    -5.730271    -0.822544    -0.882493    11.059826    2.511898    -7.908428    -7.956164    -9.478479    -0.040723    -0.555094    0.045185    -8.832176    0.276734    -3.755755    2.540943    4.218683    0.099619    3.415413    -6.375988    -12.521446    -2.152601    -0.060199    2.328353    
-4.299193    82.199478    104.821289    -1.484674    -5.178560    -172.857803    -1.521168    -14.657547    1.196296    -0.380822    11.252406    1.429520    0.081002    2.414038    -4.119484    7.119563    -4.259966    -3.022917    0.517482    18.870399    -3.569950    -41.357563    48.185848    -41.030987    1.038749    -9.772232    -17.120035    18.737013    -9.185779    2.655638    9.406409    25.712908    -3.235211    34.575687    43.235466    40.425537    -5.234510    -9.794328    19.223948    -17.281122    -8.573529    -2.300123    5.470866    -5.735050    -0.940068    -0.895965    11.061007    2.553288    -7.901941    -7.957054    -9.490891    -0.037395    -0.565740    0.041493    -8.837504    0.304317    -3.771190    2.539648    4.256357    0.086087    3.411669    -6.427598    -12.583379    -2.153831    -0.056826    2.329673    
-4.307581    82.196999    104.802658    -1.488742    -5.176972    -172.766205    -1.516697    -14.660241    1.216943    -0.399799    11.243456    1.451408    0.066451    2.434543    -4.132195    7.139917    -4.267257    -3.030187    0.515978    18.865191    -3.527126    -41.639660    48.092701    -40.751919    0.992388    -9.882201    -17.086178    18.761303    -9.297848    2.684428    9.370967    25.780352    -3.168386    34.686943    43.181377    40.334408    -5.263610    -9.789149    19.236149    -17.274681    -8.561015    -2.313424    5.457575    -5.741645    -1.049424    -0.907433    11.066234    2.585762    -7.895054    -7.959331    -9.502915    -0.034385    -0.575847    0.038154    -8.841988    0.331740    -3.789495    2.537559    4.293232    0.069148    3.408622    -6.476886    -12.639112    -2.154674    -0.054007    2.330575    
-4.315803    82.194542    104.784081    -1.492545    -5.174870    -172.674103    -1.513002    -14.662972    1.237104    -0.417274    11.235710    1.472828    0.052354    2.454687    -4.144664    7.159749    -4.275546    -3.037313    0.512870    18.862032    -3.485975    -41.910011    47.998981    -40.484318    0.945037    -9.993154    -17.048206    18.779409    -9.410076    2.720010    9.333529    25.839195    -3.105817    34.798367    43.135735    40.244671    -5.291202    -9.783356    19.247288    -17.267727    -8.548439    -2.325009    5.444387    -5.750470    -1.149940    -0.916723    11.076389    2.607749    -7.887743    -7.963428    -9.514100    -0.031934    -0.585387    0.035435    -8.845445    0.359257    -3.811154    2.534536    4.329030    0.048372    3.406467    -6.523553    -12.688061    -2.155164    -0.051615    2.331098    
-4.323941    82.192062    104.765442    -1.496125    -5.172320    -172.580460    -1.510363    -14.665674    1.256894    -0.432884    11.228953    1.493790    0.038181    2.474840    -4.157062    7.179670    -4.285144    -3.044257    0.507951    18.860987    -3.446400    -42.169121    47.905754    -40.227322    0.896882    -10.106949    -17.005529    18.790752    -9.524274    2.762733    9.295006    25.890518    -3.049051    34.906940    43.098495    40.158619    -5.316935    -9.777026    19.257654    -17.260389    -8.535906    -2.335144    5.431076    -5.761814    -1.243470    -0.923931    11.091672    2.620469    -7.880631    -7.969238    -9.524836    -0.029929    -0.594429    0.033211    -8.848153    0.387101    -3.836195    2.531072    4.363765    0.023617    3.404766    -6.567653    -12.731163    -2.155435    -0.049006    2.331382    
-4.331925    82.189583    104.746803    -1.499386    -5.169298    -172.485931    -1.508764    -14.668353    1.276159    -0.446532    11.223245    1.514224    0.024428    2.494257    -4.169341    7.199046    -4.295287    -3.051213    0.501326    18.862574    -3.408581    -42.414116    47.813950    -39.984200    0.848658    -10.221438    -16.958054    18.796757    -9.638345    2.811341    9.258323    25.934629    -3.001307    35.006603    43.070232    40.080250    -5.339879    -9.770576    19.267521    -17.252853    -8.523928    -2.344120    5.417855    -5.775427    -1.329864    -0.929116    11.111808    2.624115    -7.873792    -7.976875    -9.534777    -0.028381    -0.602590    0.031493    -8.850132    0.415359    -3.864146    2.527392    4.396814    -0.004265    3.403469    -6.608720    -12.768996    -2.155293    -0.046676    2.331222    
-4.339779    82.187103    104.728195    -1.502403    -5.165855    -172.390396    -1.508093    -14.670996    1.294992    -0.458662    11.218599    1.534211    0.011226    2.512324    -4.181686    7.218093    -4.305126    -3.058365    0.493549    18.866926    -3.372747    -42.645863    47.723377    -39.754543    0.800989    -10.335055    -16.905779    18.799433    -9.750791    2.864465    9.225509    25.972591    -2.964317    35.093449    43.050201    40.012131    -5.359077    -9.763947    19.277340    -17.245682    -8.512495    -2.352277    5.404638    -5.791276    -1.410121    -0.932544    11.136482    2.620117    -7.867045    -7.986135    -9.544424    -0.027139    -0.609577    0.030115    -8.851707    0.444260    -3.894399    2.524046    4.428015    -0.034469    3.402137    -6.646911    -12.803093    -2.154812    -0.044419    2.330694    
